<?xml version="1.0" encoding="UTF-8"?>
<svg id="Layer_1" data-name="Layer 1" xmlns="http://www.w3.org/2000/svg" viewBox="0 0 250 100">
  <path d="M104.81,52.15c.9,1.25,2.14,2.87,3.73,4.68,1.27,1.45,2.73,2.97,4.95,5.02,4.19,3.87,6.28,5.8,9.43,7.8.43.27,5.73,3.59,11.87,5.15,2.16.55,3.68.7,4.75.75.48.02,2.44.09,4.95-.34,2.28-.39,3.94-1.01,4.48-1.22.92-.36,1.67-.72,2.24-1.02.36.2.87.48,1.49.81,1.2.65,2.24,1.2,3.53,1.83.62.3,1.47.7,2.51,1.15-.21.13-.51.32-.88.54-.7.42-1.99,1.13-4.27,2.03-1.22.48-2.74,1.09-4.82,1.63-3.3.86-6,1.04-7.19,1.09-1.61.07-4.7.17-8.55-.75-2.41-.58-4.06-1.3-6.04-2.17-1.39-.61-4.83-2.2-8.89-5.02-2.66-1.85-4.4-3.41-7.12-5.83-2.75-2.45-4.63-4.39-6.17-5.97-1.42-1.45-2.38-2.5-3.39-3.73-.89-1.08-1.6-2.02-2.1-2.71,1.83-1.24,3.66-2.49,5.49-3.73Z" fill="#5fb89a" stroke-width="0"/>
  <path d="M105.72,53.35c-1.52-1.93-3.09-3.86-4.66-5.76-3.24-3.9-6.29-7.59-9.41-10.78-3.88-3.98-7.55-7.74-13.25-10.89-2.65-1.47-10.69-5.93-21.61-5.29-9.66.56-16.45,4.64-20.72,7.66-8.05,5.7-13.12,11.69-18.69,19.5-3.7,5.19-8.17,13.45-11.65,21.54-.73,1.68.05,3.64,1.74,4.36.43.18.87.27,1.31.27.28,0,.56-.04.82-.11,1.55.15,3.61-.12,3.61-.12,1.08-.14.97-.02,2.4-.14,2.85-.24,5.12-.9,6.38-1.27,1.23-.36,5.53-1.7,10.99-4.88,4.07-2.38,6.85-4.65,9.04-6.47,2.84-2.35,4.7-4.21,8.37-7.87,3.55-3.54,5.32-5.31,7.62-7.87,1.92-2.13,3.64-4.17,6.04-6.1.48-.39,1.34-1.06,3.05-2.44,2.32-1.87,2.24-1.85,2.71-2.17.87-.59,1.7-1.26,2.54-1.87.02-.01.12-.04.16-.14,0,0,.03-.08,0-.16-.04-.1-.17-.12-.19-.14-.29-.22-1.29-1.06-3.39-1.76,0,0-1.03-.35-3.66-.54-.04,0-.1,0-.17.02-.09.04-.15.1-.16.11-2.42,2-4.89,3.97-7.07,6.24-3.82,3.99-3.28,2.95-9.02,8.82-3.48,3.56-3.81,4.07-6.24,6.38-1.57,1.49-3.55,3.35-6.38,5.56-2.07,1.62-4.35,3.38-7.66,5.22-3.02,1.68-5.36,2.56-5.97,2.78-1,.37-2.79.81-6.38,1.7-.34.08-.96.23-1.76.2-.13,0-.24-.01-.34-.02,3.25-6.82,6.49-12.21,8.67-15.28,5.17-7.25,9.84-12.78,17.12-17.94,3.9-2.76,9.39-5.99,17.27-6.45,8.99-.52,15.78,3.24,18.01,4.47,4.84,2.68,8.02,5.94,11.71,9.72,2.93,3,5.9,6.58,9.04,10.38,1.54,1.85,3.07,3.75,4.56,5.64,1.14,1.44,3.23,1.68,4.66.55,1.44-1.14,1.68-3.23.55-4.67Z" fill="#122220" stroke="#5fb89a" stroke-miterlimit="10" stroke-width=".25"/>
  <path d="M76.39,22.58c3.25-1.76,4.57-2.17,4.57-2.17,3.34-1.04,5.29-1.65,8.32-2.08,1.84-.26,3.84-.54,6.51-.41,3.12.15,5.45.77,6.96,1.18,1.16.31,3.68,1.06,6.69,2.53,2.79,1.36,4.68,2.71,6.51,4.02,3.57,2.56,6.02,4.93,7.42,6.29,1.67,1.63,3.41,3.5,3.89,4.02.4.44,1.44,1.63,1.58,1.76.07.06.12.15.19.21.03.02.07.05.06.09,0,.04-.05.06-.07.07-.02.01.35-.18-.3.23-.6.38-.9.57-.97.6-.79.42-1.54,1.17-1.72,1.35,0,0-.69.69-1.27,1.55-.07.11-.15.21-.21.32-.06.09-.15.16-.18.26,0,.01-.02.05-.05.06-.03,0-.07-.04-.08-.05-.09-.11-.21-.19-.29-.31-.6-.94-1.5-1.65-2.22-2.5-1.12-1.32-2.58-2.68-3.89-3.89-1.09-1.01-2.38-2.2-4.23-3.62-1.11-.85-2.87-2.18-5.39-3.58-1.24-.69-2.7-1.49-4.78-2.24-1.06-.38-3.03-1.02-5.6-1.39-1.4-.2-3.88-.46-6.92-.17-.55.05-2.72.27-4.61.85,0,0-.86.26-2.54.92-.42.16-.63.24-.68.29-.05.04-.15.14-.25.12-.06-.02-.08-.07-.14-.14-.05-.07-.13-.12-.27-.22-1.18-.84-2.17-1.41-2.17-1.41-.88-.5-1.58-.91-2.34-1.29-.43-.22-1.27-.62-1.53-.75-.15-.07-.15-.08-.21-.1-.11-.04-.17-.04-.18-.08,0-.02,0-.06.13-.16.07-.06.15-.12.22-.17Z" fill="#122220" stroke="#5fb89a" stroke-miterlimit="10" stroke-width=".25"/>
  <path d="M179.32,50.26c-1.58,1.72-2.91,3.15-3.9,4.21-2.77,2.97-3.45,3.63-3.93,4.1-1.37,1.33-2.46,2.27-3.9,3.53-1.38,1.2-2.19,1.78-4,3.36-.78.68-1.42,1.25-1.83,1.63.25.09.64.23,1.11.41,1.68.64,1.92.84,3.06,1.22.26.09.98.32,1.93.54.45.11.85.18,1.15.24.48-.36,1.24-.94,2.14-1.7.96-.8,2.12-1.83,6.1-5.87,3.09-3.13,2.94-3.07,3.83-3.87.47-.42,1.23-1.08,2.17-2.1.75-.81,1.3-1.52,1.66-2-1.87-1.23-3.73-2.46-5.6-3.7Z" fill="#5fb89a" stroke-width="0"/>
  <path d="M244.43,20.27c-.84-3.29-4.13-2.72-7.94-2.06-1.44.25-3.18.58-5.17.99-7.02,1.43-10.54,2.15-14.11,3.37-7.48,2.56-12.75,5.93-15.91,7.94-2.45,1.56-7.38,4.95-12.96,10.13-3.63,3.38-7.04,7.06-10.11,10.95-1.14,1.44-.89,3.53.55,4.67,1.44,1.14,3.53.89,4.67-.55,2.87-3.62,6.04-7.06,9.42-10.21,5.38-5,10.19-8.24,12.01-9.4,3.09-1.97,7.76-4.95,14.48-7.25,1.99-.68,4.08-1.21,7.04-1.85-2.36,2.36-3.93,4.44-5.88,7.01-2.24,2.97-3.81,5.39-5.97,8.75-1.83,2.84-2.67,4.25-3.22,5.19-.54.92-.79,1.34-1.55,2.38-2.88,3.94-5.72,6.6-7.59,8.35-1.65,1.54-3.69,3.46-6.68,5.53-2,1.39-5.36,3.71-10.21,5.43-2.38.84-7.33,2.6-13.98,2.12-4.8-.34-8.43-1.73-9.77-2.31-3.29-1.42-5.52-3.15-8.11-5.14-2.21-1.71-4.31-3.59-6.25-5.6-.03-.04-.07-.07-.1-.11-.03-.03-.23-.28-.24-.28,0,0-.02-.02-.05-.05-.05-.04-.08-.08-.08-.09-.04-.03-.82-.66-2.16-2.08-.63-.67-1.62-1.75-1.77-1.93-.07-.08-.15-.15-.22-.23-.06-.07-.13-.12-.19-.19-.04-.04-.07-.08-.1-.07-.03,0-.04.05-.07.13-.02.04-.04.09-.1.19-.05.1-.1.16-.16.22-.15.19-.2.27-.29.4-.27.36-.73.78-.88.92-.39.36-.71.61-.96.8-.42.33-.69.53-1.09.77-.46.27-.69.38-.87.47-.14.08-.28.16-.43.22-.03.01-.11.04-.1.08,0,.04.04.07.09.14,0,0,.06.09.2.24.14.14.22.26.28.33.22.26.4.49.58.67.49.47,1.05,1.11,1.18,1.26,0,0,2.6,2.73,2.73,2.79,0,0,0,0,0,0,2.16,2.24,4.5,4.35,6.98,6.26,2.82,2.17,5.48,4.22,9.52,5.98,2.05.89,6.33,2.44,11.94,2.84.93.07,1.83.1,2.7.1,6.69,0,11.69-1.77,13.98-2.59,5.68-2.01,9.64-4.76,11.77-6.23,3.38-2.35,5.72-4.54,7.43-6.14,2.06-1.93,5.17-4.84,8.41-9.28.96-1.31,1.32-1.92,1.91-2.93.56-.94,1.32-2.23,3.08-4.96,2.17-3.36,3.6-5.57,5.69-8.35,2.08-2.75,3.45-4.56,5.77-6.8,1.87-1.81,3.64-3.53,6.44-5.02,1.32-.7,2.46-1.14,3.29-1.46.96-.37,3.88-1.49,3.12-4.47Z" fill="#122220" stroke="#5fb89a" stroke-miterlimit="10" stroke-width=".25"/>
  <circle cx="133.36" cy="48.08" r="8.29" fill="#5fb89a" stroke-width="0"/>
</svg>